<svg width="251" height="101" viewBox="0 0 251 101" fill="none" xmlns="http://www.w3.org/2000/svg">
<path d="M1.08172 56.5288C1.29367 56.5288 1.50562 56.5288 1.72398 56.5288C2.11771 57.0363 2.48821 57.5618 2.84794 58.0939C5.86908 62.3355 9.62683 64.9822 14.1334 67.4382C15.7908 68.3446 15.7908 68.3446 16.496 69.0496C16.578 69.6315 16.578 69.6315 16.5838 70.3338C16.5895 70.5907 16.5951 70.8476 16.601 71.1123C16.6061 71.3851 16.6112 71.6579 16.6164 71.939C16.7317 75.0489 17.1769 77.7552 19.4087 80.0918C21.9783 82.2291 24.5765 82.8766 27.8346 82.6765C29.4322 82.4838 30.5572 82.1054 31.9102 81.2493C32.1756 81.0846 32.4409 80.9199 32.7143 80.7502C33.7461 80.0817 34.7561 79.3848 35.7638 78.681C35.9988 78.5176 36.2338 78.3542 36.476 78.1859C38.384 76.8591 40.2858 75.5236 42.1864 74.1863C42.661 73.8531 43.1356 73.52 43.6102 73.1868C46.6976 71.0168 49.7705 68.8269 52.8182 66.6015C53.3303 66.2296 53.8468 65.8637 54.3643 65.4993C57.1386 63.4842 58.1189 61.3953 59.2063 58.134C63.9751 58.134 68.7439 58.134 73.6572 58.134C73.6958 64.6297 73.6958 64.6297 73.7042 67.418C73.71 69.3139 73.7167 71.2097 73.7299 73.1055C73.7404 74.6355 73.7461 76.1654 73.7486 77.6955C73.7503 78.2765 73.7538 78.8576 73.759 79.4386C73.811 85.4528 72.8638 90.5095 68.5962 95.0243C67.2954 96.3404 65.9698 97.387 64.3444 98.2648C64.0857 98.4088 63.8269 98.5528 63.5604 98.7012C58.3885 101.321 52.5594 100.981 46.9231 100.972C46.0787 100.974 45.2344 100.976 44.3901 100.977C42.6282 100.981 40.8662 100.98 39.1043 100.976C37.0816 100.973 35.0591 100.977 33.0365 100.986C31.0722 100.994 29.108 100.995 27.1437 100.992C26.3161 100.992 25.4886 100.994 24.6611 100.998C17.6144 101.028 11.0303 100.663 5.65783 95.507C0.943362 90.4583 -0.0469262 84.1294 0.00167216 77.462C0.00183951 76.9963 0.00167012 76.5306 0.00118705 76.0649C0.00121553 75.0991 0.00449591 74.1334 0.0103747 73.1675C0.0176855 71.9408 0.0178264 70.7142 0.0156676 69.4874C0.0145861 68.5294 0.0167406 67.5714 0.0198838 66.6134C0.0211034 66.1614 0.021497 65.7094 0.0209802 65.2574C0.019716 58.6523 0.019716 58.6523 1.08172 56.5288Z" fill="#FDFDFD"/>
<path d="M61.7753 3.55642C62.0833 3.71327 62.3913 3.87011 62.7086 4.03172C69.1417 7.71086 73.1109 14.0991 75.2728 20.9844C76.8669 27.1747 76.1881 33.8109 73.336 39.5136C73.0181 39.5136 72.7002 39.5136 72.3726 39.5136C71.9223 39.0169 71.9223 39.0169 71.4293 38.3096C68.807 34.8251 65.7874 32.3058 62.1529 29.9399C61.1331 29.2401 61.1331 29.2401 60.8119 28.598C60.77 27.9564 60.7381 27.3141 60.7116 26.6717C60.4434 23.0386 59.0402 20.2317 56.3437 17.7614C54.3752 16.1972 52.1049 15.0085 49.5724 14.793C49.1948 14.7599 48.8173 14.7268 48.4283 14.6927C43.8915 14.7707 40.1493 17.5737 36.6067 20.0903C36.0435 20.4874 35.4803 20.8846 34.917 21.2817C34.6321 21.4831 34.3471 21.6845 34.0535 21.8921C32.948 22.6722 31.839 23.4474 30.7296 24.2221C29.9269 24.783 29.1253 25.3454 28.3238 25.908C27.3169 26.614 26.3059 27.3133 25.2906 28.0073C19.0809 32.0553 19.0809 32.0553 15.5325 38.2294C15.2809 40.8598 15.5642 42.9582 16.8171 45.2924C16.9309 45.5055 17.0447 45.7186 17.162 45.9382C19.6244 49.7667 24.867 52.2949 28.5739 54.7124C30.3256 55.8625 32.0041 56.9986 33.5158 58.4553C33.6563 59.4184 33.6563 59.4184 33.1947 60.3815C30.8896 62.8766 27.0814 64.0065 23.7916 64.2993C18.1756 64.4179 13.2202 62.1951 9.10994 58.4553C8.81562 58.1908 8.5213 57.9264 8.21805 57.6539C3.79019 53.4701 0.93488 47.8962 0.652675 41.7584C0.533687 35.0351 2.04888 29.288 6.5409 24.1034C6.67469 23.9345 6.80847 23.7657 6.94631 23.5917C8.16781 22.0851 9.50942 20.9936 11.0969 19.8896C11.3487 19.7112 11.6004 19.5328 11.8598 19.349C14.1523 17.7311 16.4711 16.151 18.7915 14.5736C20.3914 13.4838 21.9768 12.3742 23.5608 11.2615C26.4357 9.24452 29.3208 7.24349 32.2307 5.27718C32.7841 4.90138 33.3335 4.51977 33.8821 4.13706C42.346 -1.59066 53.0036 -0.973804 61.7753 3.55642Z" fill="#FC3F02"/>
<path d="M203.672 46.7146C204.719 47.4851 205.597 48.3578 206.284 49.4661C206.284 49.678 206.284 49.8899 206.284 50.1082C206.496 50.1082 206.708 50.1082 206.926 50.1082C206.979 49.883 207.032 49.6579 207.087 49.4259C207.973 47.7271 209.91 46.4449 211.689 45.7653C214.566 45.1382 217.554 45.372 220.093 46.8977C222.164 48.3661 223.02 50.2567 223.625 52.6765C223.79 54.2873 223.784 55.8878 223.762 57.5048C223.76 57.9596 223.759 58.4145 223.759 58.8693C223.756 59.8142 223.75 60.759 223.74 61.7039C223.727 62.917 223.721 64.13 223.718 65.3431C223.715 66.5026 223.708 67.6621 223.702 68.8216C223.7 69.1536 223.7 69.1536 223.698 69.4923C223.695 70.1138 223.688 70.7354 223.682 71.3569C223.679 71.7106 223.676 72.0642 223.672 72.4286C223.625 73.2235 223.625 73.2235 223.304 73.5445C222.877 73.5761 222.448 73.5865 222.019 73.5872C221.761 73.5876 221.503 73.588 221.237 73.5884C220.965 73.5872 220.694 73.5859 220.414 73.5846C220.142 73.5859 219.871 73.5871 219.591 73.5884C219.333 73.588 219.074 73.5876 218.808 73.5872C218.57 73.5868 218.331 73.5864 218.086 73.5861C217.524 73.5445 217.524 73.5445 217.202 73.2235C217.168 72.6756 217.156 72.1263 217.152 71.5774C217.149 71.2258 217.145 70.8741 217.142 70.5119C217.139 70.1283 217.137 69.7448 217.135 69.3496C217.126 68.543 217.117 67.7364 217.107 66.9298C217.094 65.654 217.082 64.3782 217.074 63.1023C217.065 61.8739 217.05 60.6456 217.034 59.4172C217.033 59.0382 217.032 58.6592 217.031 58.2688C217 56.1843 216.837 54.5611 215.918 52.6765C214.786 51.7092 213.851 51.5818 212.386 51.593C212.061 51.5905 211.736 51.588 211.402 51.5855C210.293 51.7359 209.727 51.9769 208.853 52.6765C207.528 54.5541 207.742 56.6494 207.737 58.8529C207.732 59.2627 207.727 59.6725 207.721 60.0948C207.709 61.1793 207.7 62.2636 207.693 63.3482C207.683 64.882 207.667 66.4156 207.65 67.9493C207.641 68.7654 207.634 69.5814 207.629 70.3975C207.624 70.9473 207.624 70.9473 207.619 71.5083C207.616 71.9947 207.616 71.9947 207.613 72.4909C207.569 73.2235 207.569 73.2235 207.247 73.5445C206.82 73.5761 206.391 73.5865 205.963 73.5872C205.705 73.5876 205.446 73.588 205.18 73.5884C204.909 73.5872 204.637 73.5859 204.357 73.5846C204.086 73.5859 203.814 73.5871 203.534 73.5884C203.276 73.588 203.018 73.5876 202.752 73.5872C202.513 73.5868 202.275 73.5864 202.029 73.5861C201.467 73.5445 201.467 73.5445 201.146 73.2235C201.111 72.6888 201.099 72.1528 201.095 71.6171C201.092 71.2739 201.089 70.9308 201.085 70.5773C201.083 70.2028 201.081 69.8283 201.078 69.4424C201.069 68.6534 201.06 67.8643 201.051 67.0753C201.037 65.8284 201.026 64.5816 201.017 63.3346C201.008 62.1332 200.993 60.9321 200.978 59.7308C200.977 59.3621 200.976 58.9934 200.975 58.6136C200.942 56.4354 200.782 54.3619 199.861 52.3555C198.338 51.3052 196.182 51.4799 194.402 51.7134C193.203 52.2473 192.604 52.9983 192.113 54.2229C191.837 55.2322 191.747 56.0658 191.736 57.1089C191.731 57.4676 191.725 57.8264 191.72 58.196C191.717 58.5783 191.714 58.9606 191.711 59.3545C191.706 59.7501 191.701 60.1457 191.695 60.5532C191.678 61.8136 191.665 63.074 191.653 64.3345C191.639 65.6007 191.623 66.8668 191.607 68.133C191.596 68.9204 191.588 69.7079 191.581 70.4954C191.577 70.8491 191.572 71.2028 191.568 71.5672C191.565 71.8801 191.562 72.1929 191.559 72.5153C191.512 73.2235 191.512 73.2235 191.191 73.5445C190.764 73.5761 190.335 73.5865 189.906 73.5872C189.648 73.5876 189.39 73.588 189.124 73.5884C188.852 73.5872 188.581 73.5859 188.301 73.5846C188.029 73.5859 187.758 73.5871 187.478 73.5884C187.22 73.588 186.961 73.5876 186.695 73.5872C186.457 73.5868 186.218 73.5864 185.973 73.5861C185.411 73.5445 185.411 73.5445 185.089 73.2235C185.057 72.3948 185.046 71.5748 185.048 70.746C185.047 70.4866 185.047 70.2272 185.046 69.9599C185.045 69.098 185.046 68.2362 185.047 67.3744C185.047 66.7782 185.046 66.182 185.046 65.5858C185.045 64.3346 185.046 63.0834 185.048 61.8321C185.049 60.2245 185.048 58.6169 185.046 57.0093C185.045 55.7777 185.046 54.5461 185.046 53.3145C185.047 52.7215 185.046 52.1286 185.046 51.5357C185.045 50.7085 185.046 49.8813 185.048 49.0541C185.047 48.8066 185.047 48.5591 185.046 48.3041C185.053 46.6133 185.053 46.6133 185.411 46.2556C186.324 46.2235 187.227 46.2111 188.14 46.2155C188.396 46.2142 188.653 46.213 188.917 46.2117C190.829 46.215 190.829 46.215 191.191 46.5767C191.236 47.434 191.205 48.286 191.191 49.145C191.403 49.145 191.615 49.145 191.833 49.145C191.949 48.8588 191.949 48.8588 192.066 48.5669C192.559 47.7159 193.058 47.3689 193.88 46.8375C194.128 46.674 194.375 46.5106 194.631 46.3421C197.333 44.8435 201.069 45.2114 203.672 46.7146Z" fill="#FBFBFB"/>
<path d="M56.9583 34.3768C57.3787 34.5047 57.3787 34.5047 57.8076 34.6351C63.9634 36.723 68.3934 42.1157 71.3414 47.6563C73.0939 51.2595 73.6571 54.0943 73.6571 58.1342C68.8883 58.1342 64.1195 58.1342 59.2062 58.1342C58.8883 56.2272 58.8883 56.2272 58.564 54.2816C57.3044 51.1103 55.2764 48.9172 52.1414 47.5397C49.4685 46.5721 47.3289 46.781 44.7554 47.8607C44.4706 48.0395 44.1858 48.2183 43.8923 48.4025C42.899 48.9661 42.3605 48.9477 41.2229 48.8238C40.4011 48.3776 39.6891 47.9386 38.9349 47.3992C38.727 47.2545 38.5192 47.1097 38.305 46.9606C37.8781 46.6615 37.4527 46.3603 37.0288 46.0569C36.4401 45.6377 35.8449 45.2302 35.2469 44.8246C34.9008 44.5816 34.5548 44.3387 34.1982 44.0884C33.8877 43.8716 33.5773 43.6547 33.2574 43.4313C32.5524 42.724 32.5524 42.724 32.1284 41.816C32.25 40.6128 32.4458 40.4629 33.3176 39.6778C33.8048 39.2929 34.2994 38.9172 34.8003 38.5504C35.0324 38.3793 35.2646 38.2082 35.5037 38.032C36.2103 37.5279 36.9273 37.044 37.6504 36.5639C38.0062 36.3196 38.0062 36.3196 38.3691 36.0704C44.0123 32.3012 50.647 32.1571 56.9583 34.3768Z" fill="#FC3F04"/>
<path d="M100.572 35.8817C100.857 35.8833 101.143 35.8849 101.437 35.8865C103.444 35.9225 105.213 36.0917 107.055 36.9452C107.299 37.0545 107.544 37.1637 107.796 37.2763C110.463 38.6072 112.409 40.5133 113.608 43.247C113.862 44.2604 113.829 45.2156 113.798 46.2555C108.25 46.7004 108.25 46.7004 106.953 45.6573C106.513 44.8911 106.513 44.8911 106.136 44.0947C105.621 43.0694 105.059 42.7088 104.018 42.27C101.427 41.6732 98.7657 41.6665 96.4574 43.0451C95.4116 43.9805 95.0775 44.7039 94.9922 46.0749C95.0625 47.2857 95.3033 48.1528 96.194 49.0408C98.5442 50.7501 101.601 51.3671 104.345 52.1748C111.54 54.3073 111.54 54.3073 113.477 57.4921C114.802 60.1208 114.845 62.9578 114.241 65.8218C113.091 69.0818 110.814 71.0496 107.768 72.5198C103.557 74.0764 98.3839 74.2319 94.1555 72.6854C91.0609 71.2387 88.7035 69.2298 87.5059 65.9798C87.1005 64.7478 87.1164 63.5987 87.1446 62.3078C88.1413 62.2612 89.1377 62.2327 90.1351 62.2075C90.4181 62.194 90.701 62.1806 90.9925 62.1667C91.7738 62.1519 92.4793 62.1559 93.2461 62.3078C93.8871 63.0553 93.8871 63.0553 94.2095 63.913C95.2516 65.7364 96.3158 66.6712 98.339 67.3129C100.813 67.7867 103.208 67.6214 105.449 66.4814C106.864 65.2799 106.864 65.2799 107.452 63.5958C107.464 63.2264 107.464 63.2264 107.476 62.8496C107.488 62.6058 107.5 62.3621 107.513 62.1109C107.321 61.0351 106.827 60.5387 106.091 59.7395C103.299 58.1601 99.9938 57.4234 96.9221 56.5698C93.7058 55.6285 90.9796 54.2355 89.0714 51.3923C87.6886 48.8578 87.5849 45.4792 88.3902 42.7203C89.8109 39.6593 92.0761 37.8543 95.1729 36.6242C97.0062 35.9841 98.6527 35.8693 100.572 35.8817Z" fill="#FBFBFB"/>
<path d="M247.007 47.4193C249.118 48.9434 250.461 51.0761 250.921 53.6396C251.012 55.1372 251.003 56.6318 250.995 58.1317C250.995 58.5668 250.995 59.0019 250.995 59.437C250.994 60.3442 250.991 61.2514 250.987 62.1586C250.982 63.3235 250.98 64.4883 250.981 65.6532C250.981 66.5494 250.979 67.4456 250.977 68.3418C250.975 68.9808 250.974 69.6198 250.974 70.2588C250.972 70.6436 250.97 71.0284 250.968 71.4249C250.966 71.7653 250.965 72.1057 250.964 72.4564C250.921 73.2234 250.921 73.2234 250.6 73.5444C250.173 73.576 249.744 73.5864 249.315 73.5871C249.057 73.5875 248.799 73.5879 248.533 73.5883C248.261 73.5871 247.99 73.5858 247.71 73.5846C247.438 73.5858 247.167 73.587 246.887 73.5883C246.629 73.5879 246.37 73.5875 246.104 73.5871C245.866 73.5867 245.627 73.5863 245.382 73.586C244.82 73.5444 244.82 73.5444 244.498 73.2234C244.475 72.6821 244.471 72.1399 244.478 71.5981C244.481 71.303 244.484 71.0079 244.487 70.7039C244.491 70.4759 244.495 70.2479 244.498 70.0129C244.286 70.0129 244.075 70.0129 243.856 70.0129C243.734 70.2997 243.734 70.2997 243.609 70.5923C242.761 72.105 241.177 72.9937 239.621 73.6648C236.166 74.2311 233.254 74.0464 230.287 72.1085C228.551 70.7561 227.645 69.2662 227.157 67.1235C226.862 64.7404 226.959 62.6578 228.442 60.7026C230.54 58.1922 233.289 57.3911 236.461 57.0231C239.027 56.8185 241.605 56.8062 244.177 56.85C244.287 55.0202 244.323 53.5864 243.214 52.0344C241.516 50.7284 239.479 50.869 237.434 51.0712C236.063 51.5115 235.656 51.7478 234.99 53.0276C234.222 53.9606 234.222 53.9606 233.608 54.1172C232.867 54.1503 232.152 54.1288 231.412 54.081C231.03 54.068 231.03 54.068 230.641 54.0547C230.015 54.0321 229.389 53.9975 228.763 53.9606C228.281 52.2724 228.733 51.4199 229.541 49.9262C231.021 47.6449 233.234 46.5863 235.753 45.7451C239.525 45.0528 243.699 45.4447 247.007 47.4193Z" fill="#FAFAFA"/>
<path d="M164.08 47.5988C166.896 49.7096 168.741 52.7205 169.354 56.2081C169.384 57.0878 169.399 57.9573 169.394 58.8366C169.395 59.0732 169.397 59.3097 169.398 59.5534C169.395 61.3041 169.395 61.3041 169.033 61.6659C168.461 61.6959 167.889 61.7036 167.316 61.7023C166.95 61.7023 166.583 61.7023 166.206 61.7022C165.807 61.7006 165.408 61.6989 164.997 61.6972C164.389 61.6965 164.389 61.6965 163.768 61.6958C162.687 61.6943 161.606 61.6915 160.526 61.6879C159.424 61.6846 158.322 61.6832 157.219 61.6815C155.056 61.678 152.892 61.6726 150.728 61.6659C150.871 62.2847 151.018 62.9029 151.165 63.5207C151.287 64.0371 151.287 64.0371 151.411 64.564C151.926 66.3117 152.737 67.1152 154.321 68.0466C156.352 68.6457 158.204 68.7627 160.162 67.8661C161.237 67.259 161.897 66.5329 162.61 65.5184C163.625 65.011 164.708 65.1249 165.822 65.1171C166.058 65.1105 166.295 65.1039 166.539 65.097C167.227 65.092 167.227 65.092 168.391 65.1974C168.603 65.5152 168.815 65.833 169.033 66.1605C167.34 70.0376 165.27 71.9435 161.326 73.5446C157.858 74.49 153.607 74.1806 150.407 72.5814C147.063 70.537 145.21 67.6851 144.135 63.963C143.174 59.5341 143.814 54.6275 146.172 50.7904C150.287 45.1079 158.221 43.8241 164.08 47.5988Z" fill="#F9F9F9"/>
<path d="M117.01 46.2555C118.006 46.2089 119.003 46.1803 120 46.1551C120.283 46.1417 120.566 46.1282 120.858 46.1144C121.266 46.1066 121.266 46.1066 121.682 46.0987C121.933 46.0903 122.184 46.0819 122.442 46.0732C123.111 46.2555 123.111 46.2555 123.617 46.8757C124.231 48.1977 124.678 49.5476 125.118 50.9357C125.263 51.3817 125.263 51.3817 125.41 51.8366C125.716 52.7848 126.019 53.7338 126.323 54.6829C126.526 55.3163 126.73 55.9496 126.935 56.5829C127.224 57.4799 127.513 58.3771 127.801 59.2747C127.887 59.5457 127.974 59.8167 128.064 60.0959C128.147 60.3567 128.23 60.6176 128.316 60.8863C128.65 61.9101 129.003 62.9271 129.36 63.9431C129.534 64.5551 129.534 64.5551 129.534 65.5182C129.746 65.5182 129.958 65.5182 130.176 65.5182C130.258 65.1161 130.34 64.714 130.424 64.2997C130.826 62.4956 131.395 60.7606 131.982 59.0095C132.15 58.506 132.15 58.506 132.321 57.9923C132.555 57.2879 132.791 56.5837 133.027 55.8798C133.388 54.8006 133.747 53.7204 134.105 52.64C134.334 51.954 134.563 51.268 134.792 50.5821C134.899 50.259 135.006 49.936 135.117 49.6031C135.218 49.304 135.318 49.0049 135.422 48.6967C135.51 48.4338 135.598 48.1709 135.688 47.9C135.956 47.2186 135.956 47.2186 136.599 46.2555C137.232 46.1461 137.232 46.1461 137.996 46.1614C138.406 46.1661 138.406 46.1661 138.824 46.1708C139.11 46.1789 139.395 46.187 139.69 46.1953C140.122 46.2018 140.122 46.2018 140.563 46.2084C141.275 46.2198 141.988 46.2357 142.7 46.2555C143.105 47.4695 142.872 47.866 142.445 49.0584C142.311 49.4371 142.176 49.8159 142.038 50.2061C141.888 50.6215 141.737 51.037 141.586 51.4524C141.433 51.8826 141.279 52.3129 141.126 52.7433C140.72 53.8819 140.31 55.0192 139.899 56.1563C139.491 57.2897 139.086 58.4243 138.681 59.5588C137.779 62.0825 136.869 64.6036 135.956 67.1235C135.833 67.4659 135.709 67.8084 135.581 68.1612C135.262 69.0397 134.943 69.9177 134.622 70.7954C134.531 71.0442 134.441 71.293 134.348 71.5494C133.746 73.1857 133.746 73.1857 133.387 73.5444C132.862 73.5723 132.336 73.5787 131.811 73.5757C131.493 73.5747 131.175 73.5737 130.848 73.5726C130.514 73.5699 130.179 73.5672 129.835 73.5644C129.499 73.563 129.164 73.5615 128.818 73.56C127.986 73.5563 127.154 73.5507 126.323 73.5444C125.167 70.8448 124.12 68.1192 123.13 65.3552C122.984 64.9509 122.838 64.5466 122.693 64.1423C122.313 63.0894 121.934 62.036 121.555 60.9826C120.949 59.2952 120.342 57.6082 119.733 55.9215C119.523 55.3396 119.315 54.7573 119.106 54.1751C118.976 53.815 118.846 53.4548 118.713 53.0838C118.59 52.7421 118.467 52.4003 118.34 52.0482C117.897 50.8695 117.403 49.7173 116.884 48.5703C116.644 47.6988 116.776 47.1183 117.01 46.2555Z" fill="#FAFAFA"/>
<path d="M174.446 36.5879C174.827 36.5904 174.827 36.5904 175.216 36.593C175.627 36.5945 175.627 36.5945 176.047 36.5961C176.335 36.5988 176.624 36.6015 176.921 36.6043C177.21 36.6057 177.5 36.6072 177.798 36.6087C178.516 36.6125 179.234 36.6177 179.951 36.6243C179.959 41.3907 179.964 46.1571 179.968 50.9235C179.97 53.1365 179.972 55.3495 179.975 57.5625C179.979 59.6961 179.981 61.8298 179.982 63.9634C179.982 64.7795 179.983 65.5955 179.985 66.4116C179.988 67.5502 179.988 68.6888 179.988 69.8274C179.989 70.1685 179.99 70.5096 179.991 70.861C179.991 71.1694 179.99 71.4778 179.99 71.7955C179.99 72.0651 179.99 72.3347 179.991 72.6125C179.951 73.2236 179.951 73.2236 179.63 73.5446C179.203 73.5762 178.774 73.5866 178.346 73.5872C178.087 73.5877 177.829 73.5881 177.563 73.5885C177.291 73.5873 177.02 73.586 176.74 73.5847C176.468 73.586 176.197 73.5872 175.917 73.5885C175.659 73.5881 175.4 73.5877 175.134 73.5872C174.896 73.5869 174.657 73.5865 174.412 73.5861C173.85 73.5446 173.85 73.5446 173.529 73.2236C173.497 72.7532 173.488 72.2813 173.488 71.8099C173.487 71.5046 173.486 71.1994 173.485 70.8849C173.486 70.5474 173.486 70.2098 173.487 69.862C173.487 69.5086 173.486 69.1552 173.485 68.7912C173.484 67.6166 173.485 66.4422 173.486 65.2676C173.486 64.4555 173.485 63.6434 173.485 62.8312C173.485 61.1266 173.485 59.4219 173.487 57.7173C173.489 55.7439 173.488 53.7705 173.486 51.7971C173.485 49.9021 173.485 48.0071 173.486 46.112C173.486 45.3041 173.486 44.4961 173.485 43.6881C173.484 42.561 173.485 41.434 173.487 40.307C173.486 39.9694 173.486 39.6318 173.485 39.284C173.486 38.9788 173.487 38.6736 173.488 38.3591C173.488 38.0923 173.488 37.8255 173.488 37.5506C173.543 36.7339 173.628 36.6379 174.446 36.5879Z" fill="#FCFCFC"/>
<path d="M244.177 61.0236C244.377 64.7597 244.377 64.7597 243.655 66.3409C242.054 67.984 240.58 68.769 238.297 68.829C236.682 68.8162 235.776 68.5501 234.543 67.4445C233.64 66.0892 233.604 64.8619 233.901 63.2709C234.645 62.232 235.585 61.7465 236.791 61.3446C237.224 61.2982 237.659 61.2656 238.093 61.243C238.344 61.2296 238.594 61.2161 238.852 61.2023C239.243 61.1834 239.243 61.1834 239.641 61.164C240.028 61.1432 240.028 61.1432 240.423 61.122C241.676 61.057 242.922 61.0058 244.177 61.0236Z" fill="black"/>
<path d="M159.339 51.1113C160.99 52.0826 162.08 53.3644 162.61 55.2448C162.61 55.7745 162.61 56.3042 162.61 56.85C158.689 56.85 154.768 56.85 150.729 56.85C151.625 52.8172 151.625 52.8172 153.659 51.2719C155.504 50.3258 157.408 50.5417 159.339 51.1113Z" fill="black"/>
<path d="M65.3077 63.7925C65.6567 63.7869 65.6567 63.7869 66.0127 63.7812C67.706 63.7906 67.706 63.7906 68.4252 64.3058C68.9671 65.0505 68.96 65.5066 68.9568 66.4223C68.9566 66.7205 68.9564 67.0186 68.9562 67.3259C68.951 67.6364 68.9458 67.947 68.9405 68.267C68.942 68.7348 68.942 68.7348 68.9436 69.212C68.9259 71.5322 68.9259 71.5322 68.1979 72.2601C67.2808 72.3325 66.4052 72.3642 65.4883 72.3604C65.1142 72.3681 65.1142 72.3681 64.7326 72.3761C62.9023 72.3776 62.9023 72.3776 62.1859 71.8627C61.663 71.1422 61.651 70.7172 61.6473 69.8321C61.6461 69.5499 61.6448 69.2677 61.6436 68.9769C61.6473 68.683 61.651 68.3892 61.6548 68.0865C61.6493 67.6457 61.6493 67.6457 61.6436 67.1961C61.6448 66.9138 61.646 66.6316 61.6473 66.3408C61.6489 65.954 61.6489 65.954 61.6506 65.5595C62.0089 63.595 63.6503 63.7659 65.3077 63.7925Z" fill="black"/>
<path d="M63.7222 78.275C64.1059 78.2737 64.1059 78.2737 64.4974 78.2725C64.7648 78.2749 65.0322 78.2774 65.3077 78.28C65.5752 78.2775 65.8426 78.275 66.1181 78.2725C66.3739 78.2733 66.6297 78.2741 66.8933 78.275C67.128 78.2757 67.3628 78.2764 67.6046 78.2772C68.1979 78.3602 68.1979 78.3602 68.8402 79.0023C68.9233 79.6839 68.9233 79.6839 68.9255 80.5173C68.9267 80.9661 68.9267 80.9661 68.928 81.424C68.9255 81.7373 68.923 82.0505 68.9205 82.3733C68.9229 82.6866 68.9254 82.9999 68.928 83.3227C68.9272 83.6219 68.9263 83.9211 68.9255 84.2294C68.9248 84.5044 68.924 84.7794 68.9233 85.0627C68.8402 85.7443 68.8402 85.7443 68.1979 86.3864C67.2411 86.5286 66.274 86.4905 65.3077 86.4867C65.0403 86.4919 64.7729 86.4971 64.4974 86.5024C64.1137 86.5027 64.1137 86.5027 63.7222 86.503C63.4874 86.504 63.2527 86.5049 63.0109 86.5059C62.4176 86.3864 62.4176 86.3864 61.7753 85.4233C61.6922 84.7347 61.6922 84.7347 61.69 83.9472C61.6892 83.6635 61.6884 83.3798 61.6875 83.0875C61.69 82.7922 61.6925 82.497 61.695 82.1927C61.6925 81.8962 61.6901 81.5997 61.6875 81.2942C61.6883 81.0109 61.6892 80.7276 61.69 80.4358C61.6907 80.1762 61.6915 79.9167 61.6922 79.6494C61.858 78.3586 62.5921 78.2785 63.7222 78.275Z" fill="black"/>
<path d="M8.05565 69.5884C8.40865 69.5899 8.40865 69.5899 8.76879 69.5915C9.00288 69.5863 9.23697 69.5812 9.47816 69.5758C11.1977 69.5743 11.1977 69.5743 11.9063 70.0943C12.4223 70.7915 12.4454 71.1768 12.4492 72.0382C12.4511 72.4377 12.4511 72.4377 12.453 72.8452C12.4493 73.1223 12.4456 73.3994 12.4417 73.6849C12.4454 73.9607 12.4492 74.2365 12.453 74.5207C12.4478 75.638 12.4075 76.5373 11.9939 77.5813C10.9916 78.3027 9.95312 78.1992 8.76879 78.1594C8.53345 78.159 8.29812 78.1586 8.05565 78.1582C6.31013 78.1293 6.31013 78.1293 5.57756 77.397C5.49445 76.6859 5.49445 76.6859 5.49225 75.8118C5.49143 75.4981 5.4906 75.1844 5.48975 74.8612C5.49223 74.5326 5.49471 74.204 5.49727 73.8654C5.49479 73.5368 5.49231 73.2083 5.48975 72.8697C5.49057 72.556 5.4914 72.2423 5.49225 71.9191C5.49298 71.6307 5.4937 71.3422 5.49445 71.045C5.67736 69.48 6.71403 69.6019 8.05565 69.5884Z" fill="black"/>
<path d="M8.58816 84.0788C8.96445 84.0729 8.96445 84.0729 9.34833 84.0669C10.6117 84.0637 11.2474 84.0654 12.3213 84.7811C12.4409 85.3987 12.4409 85.3987 12.438 86.1443C12.4378 86.4131 12.4375 86.6819 12.4373 86.9588C12.4322 87.2401 12.427 87.5213 12.4217 87.811C12.4232 88.2309 12.4232 88.2309 12.4248 88.6594C12.4071 90.7523 12.4071 90.7523 11.679 91.8441C10.0004 92.0378 8.92607 91.7771 7.50434 90.881C5.9832 89.5292 5.9832 89.5292 5.57756 88.3126C5.54738 87.6577 5.53584 87.0018 5.53742 86.3462C5.53659 86.0011 5.53577 85.6559 5.53491 85.3003C5.62485 83.5285 7.17781 84.08 8.58816 84.0788Z" fill="black"/>
<path d="M74.2993 35.6611C74.6892 36.8303 74.5137 37.0518 73.9983 38.1292C73.8762 38.3887 73.754 38.6481 73.6282 38.9155C73.5318 39.1129 73.4353 39.3103 73.336 39.5137C73.018 39.5137 72.7001 39.5137 72.3726 39.5137C72.4785 39.1958 72.5845 38.878 72.6937 38.5505C72.9056 38.5505 73.1176 38.5505 73.336 38.5505C73.6539 37.597 73.9718 36.6435 74.2993 35.6611Z" fill="#EE4903"/>
<path d="M9.75222 20.8931C9.75222 21.8562 9.75222 21.8562 9.33074 22.3014C8.82897 22.6881 8.32721 23.0748 7.82544 23.4614C7.93745 22.4163 8.15342 22.1712 8.96947 21.4549C9.22778 21.2695 9.48608 21.0841 9.75222 20.8931Z" fill="#E94403"/>
</svg>
