<svg width="782" height="315" viewBox="0 0 782 315" fill="none" xmlns="http://www.w3.org/2000/svg">
<path d="M3.36849 176.078C4.02849 176.078 4.68849 176.078 5.36849 176.078C6.59455 177.658 7.74827 179.295 8.86849 180.953C18.2763 194.164 29.978 202.408 44.0116 210.058C49.1725 212.882 49.1725 212.882 51.3685 215.078C51.6239 216.89 51.6239 216.89 51.6419 219.078C51.6596 219.878 51.6772 220.678 51.6954 221.502C51.7113 222.352 51.7271 223.202 51.7435 224.078C52.1026 233.764 53.489 242.194 60.4388 249.472C68.4404 256.129 76.5312 258.146 86.6771 257.523C91.6518 256.923 95.1553 255.744 99.3685 253.078C100.195 252.565 101.021 252.052 101.872 251.523C105.085 249.441 108.23 247.27 111.368 245.078C112.1 244.569 112.832 244.06 113.586 243.536C119.528 239.403 125.45 235.243 131.368 231.078C132.846 230.04 134.324 229.002 135.802 227.964C145.416 221.205 154.985 214.384 164.476 207.452C166.071 206.294 167.679 205.154 169.29 204.019C177.93 197.742 180.982 191.236 184.368 181.078C199.218 181.078 214.068 181.078 229.368 181.078C229.489 201.31 229.489 201.31 229.515 209.996C229.533 215.901 229.554 221.806 229.595 227.711C229.628 232.477 229.645 237.242 229.653 242.008C229.659 243.818 229.669 245.628 229.686 247.438C229.848 266.171 226.898 281.922 213.609 295.984C209.558 300.084 205.43 303.343 200.368 306.078C199.563 306.526 198.757 306.975 197.927 307.437C181.822 315.598 163.67 314.538 146.118 314.511C143.489 314.516 140.86 314.521 138.231 314.527C132.744 314.537 127.258 314.534 121.771 314.524C115.472 314.512 109.174 314.526 102.876 314.553C96.7588 314.578 90.6422 314.58 84.5254 314.574C81.9484 314.574 79.3715 314.58 76.7946 314.592C54.8513 314.684 34.3483 313.547 17.6185 297.488C2.93763 281.762 -0.146128 262.048 0.0052071 241.281C0.00572824 239.83 0.00520076 238.38 0.00369648 236.929C0.00378515 233.921 0.0140003 230.913 0.0323067 227.904C0.0550726 224.083 0.0555115 220.263 0.0487891 216.441C0.0454212 213.457 0.0521303 210.473 0.0619183 207.489C0.0657161 206.081 0.0669416 204.673 0.0653325 203.265C0.0613957 182.692 0.0613956 182.692 3.36849 176.078Z" fill="black"/>
<path d="M192.368 11.0776C193.327 11.5662 194.287 12.0547 195.275 12.5581C215.307 24.0179 227.667 43.9163 234.4 65.3628C239.364 84.6442 237.25 105.315 228.368 123.078C227.378 123.078 226.388 123.078 225.368 123.078C223.966 121.531 223.966 121.531 222.431 119.328C214.265 108.474 204.862 100.627 193.544 93.2573C190.368 91.0776 190.368 91.0776 189.368 89.0776C189.238 87.0792 189.139 85.0786 189.056 83.0776C188.221 71.7612 183.851 63.0181 175.454 55.3237C169.324 50.4515 162.255 46.7488 154.368 46.0776C153.193 45.9745 152.017 45.8713 150.806 45.7651C136.678 46.0082 125.025 54.7388 113.993 62.5776C112.24 63.8147 110.486 65.0517 108.732 66.2885C107.844 66.916 106.957 67.5434 106.043 68.1899C102.6 70.6199 99.1468 73.0345 95.6922 75.4475C93.1925 77.1945 90.6964 78.9464 88.2005 80.6987C85.0649 82.8977 81.9166 85.0761 78.7551 87.2378C59.4181 99.8463 59.4181 99.8463 48.3684 119.078C47.5847 127.271 48.4669 133.807 52.3684 141.078C52.7229 141.741 53.0774 142.405 53.4426 143.089C61.1105 155.014 77.4359 162.889 88.9793 170.419C94.434 174.002 99.661 177.54 104.368 182.078C104.806 185.078 104.806 185.078 103.368 188.078C96.1901 195.849 84.3315 199.369 74.0872 200.281C56.5988 200.65 41.1677 193.726 28.3684 182.078C27.4519 181.254 26.5354 180.43 25.5911 179.581C11.8027 166.55 2.91128 149.188 2.03249 130.07C1.66196 109.128 6.38027 91.2268 20.3684 75.0776C20.785 74.5517 21.2016 74.0257 21.6309 73.4838C25.4346 68.7912 29.6124 65.3912 34.5559 61.9526C35.3398 61.3969 36.1237 60.8413 36.9314 60.2688C44.0702 55.2293 51.291 50.3074 58.5169 45.394C63.4989 41.9997 68.4359 38.5432 73.3684 35.0776C82.3209 28.795 91.3051 22.5622 100.366 16.4375C102.09 15.2669 103.801 14.0783 105.509 12.8862C131.866 -4.95461 165.053 -3.03322 192.368 11.0776Z" fill="#FC3F02"/>
<path d="M634.236 145.507C637.495 147.907 640.229 150.626 642.368 154.078C642.368 154.738 642.368 155.398 642.368 156.078C643.028 156.078 643.688 156.078 644.368 156.078C644.533 155.376 644.698 154.675 644.868 153.953C647.629 148.661 653.661 144.667 659.2 142.55C668.159 140.597 677.462 141.325 685.368 146.078C691.819 150.651 694.486 156.54 696.368 164.078C696.881 169.095 696.862 174.08 696.794 179.117C696.789 180.533 696.786 181.95 696.784 183.367C696.777 186.31 696.756 189.253 696.725 192.196C696.685 195.975 696.667 199.753 696.658 203.532C696.648 207.143 696.628 210.755 696.607 214.367C696.602 215.401 696.602 215.401 696.596 216.456C696.585 218.392 696.565 220.328 696.545 222.264C696.536 223.365 696.526 224.467 696.516 225.602C696.368 228.078 696.368 228.078 695.368 229.078C694.038 229.176 692.702 229.208 691.368 229.21C690.564 229.212 689.76 229.213 688.931 229.214C688.085 229.211 687.24 229.207 686.368 229.203C685.523 229.207 684.677 229.21 683.806 229.214C683.002 229.213 682.197 229.212 681.368 229.21C680.626 229.209 679.883 229.208 679.118 229.207C677.368 229.078 677.368 229.078 676.368 228.078C676.261 226.371 676.222 224.66 676.211 222.95C676.2 221.855 676.19 220.76 676.18 219.631C676.172 218.437 676.165 217.242 676.157 216.011C676.129 213.499 676.101 210.986 676.072 208.474C676.03 204.5 675.993 200.526 675.967 196.552C675.939 192.726 675.893 188.9 675.845 185.074C675.842 183.893 675.838 182.713 675.835 181.496C675.739 175.004 675.231 169.948 672.368 164.078C668.843 161.065 665.931 160.668 661.368 160.703C660.358 160.695 659.347 160.687 658.306 160.679C654.851 161.148 653.09 161.898 650.368 164.078C646.242 169.926 646.91 176.452 646.892 183.316C646.876 184.592 646.861 185.869 646.845 187.184C646.805 190.562 646.778 193.94 646.757 197.318C646.725 202.095 646.674 206.873 646.621 211.65C646.593 214.192 646.572 216.733 646.557 219.275C646.542 220.988 646.542 220.988 646.526 222.735C646.516 224.25 646.516 224.25 646.506 225.796C646.368 228.078 646.368 228.078 645.368 229.078C644.038 229.176 642.702 229.208 641.368 229.21C640.564 229.212 639.76 229.213 638.931 229.214C638.085 229.211 637.24 229.207 636.368 229.203C635.523 229.207 634.677 229.21 633.806 229.214C633.002 229.213 632.197 229.212 631.368 229.21C630.626 229.209 629.883 229.208 629.118 229.207C627.368 229.078 627.368 229.078 626.368 228.078C626.261 226.412 626.222 224.743 626.211 223.074C626.2 222.005 626.19 220.936 626.18 219.835C626.172 218.669 626.165 217.502 626.157 216.3C626.129 213.843 626.101 211.385 626.072 208.927C626.03 205.043 625.994 201.16 625.967 197.276C625.939 193.534 625.893 189.792 625.845 186.05C625.842 184.902 625.838 183.754 625.835 182.571C625.733 175.786 625.235 169.327 622.368 163.078C617.625 159.806 610.909 160.35 605.368 161.078C601.636 162.741 599.768 165.08 598.239 168.894C597.379 172.038 597.1 174.635 597.065 177.884C597.049 179.001 597.032 180.119 597.015 181.27C597.007 182.461 596.998 183.652 596.99 184.878C596.973 186.111 596.956 187.343 596.938 188.612C596.885 192.538 596.845 196.464 596.806 200.39C596.763 204.334 596.715 208.278 596.663 212.222C596.631 214.674 596.604 217.127 596.583 219.58C596.569 220.682 596.556 221.784 596.542 222.919C596.532 223.893 596.523 224.868 596.513 225.872C596.368 228.078 596.368 228.078 595.368 229.078C594.038 229.176 592.702 229.208 591.368 229.21C590.564 229.212 589.76 229.213 588.931 229.214C588.085 229.211 587.24 229.207 586.368 229.203C585.523 229.207 584.677 229.21 583.806 229.214C583.002 229.213 582.197 229.212 581.368 229.21C580.626 229.209 579.883 229.208 579.118 229.207C577.368 229.078 577.368 229.078 576.368 228.078C576.268 225.497 576.232 222.942 576.239 220.361C576.237 219.553 576.236 218.745 576.234 217.912C576.229 215.228 576.232 212.543 576.236 209.859C576.235 208.002 576.234 206.145 576.233 204.288C576.231 200.39 576.233 196.493 576.238 192.596C576.244 187.588 576.24 182.581 576.234 177.574C576.231 173.737 576.232 169.901 576.235 166.065C576.235 164.218 576.234 162.371 576.232 160.524C576.23 157.948 576.233 155.371 576.239 152.794C576.237 152.024 576.235 151.253 576.233 150.458C576.254 145.192 576.254 145.192 577.368 144.078C580.212 143.978 583.025 143.939 585.868 143.953C586.666 143.949 587.464 143.945 588.286 143.941C594.242 143.951 594.242 143.951 595.368 145.078C595.51 147.748 595.411 150.402 595.368 153.078C596.028 153.078 596.688 153.078 597.368 153.078C597.728 152.186 597.728 152.186 598.095 151.277C599.63 148.626 601.182 147.545 603.743 145.89C604.514 145.381 605.285 144.872 606.079 144.347C614.496 139.679 626.129 140.825 634.236 145.507Z" fill="black"/>
<path d="M177.368 107.078C178.677 107.476 178.677 107.476 180.013 107.882C199.182 114.386 212.977 131.183 222.157 148.441C227.615 159.664 229.368 168.494 229.368 181.078C214.518 181.078 199.668 181.078 184.368 181.078C183.378 175.138 183.378 175.138 182.368 169.078C178.446 159.2 172.131 152.368 162.368 148.078C154.045 145.064 147.383 145.714 139.368 149.078C138.482 149.635 137.595 150.191 136.681 150.765C133.588 152.521 131.911 152.463 128.368 152.078C125.809 150.688 123.592 149.32 121.243 147.64C120.596 147.189 119.949 146.738 119.282 146.274C117.952 145.342 116.628 144.404 115.308 143.459C113.475 142.153 111.621 140.884 109.759 139.621C108.681 138.864 107.604 138.107 106.493 137.328C105.527 136.652 104.56 135.977 103.564 135.281C101.368 133.078 101.368 133.078 100.048 130.25C100.427 126.502 101.036 126.035 103.751 123.589C105.268 122.39 106.808 121.22 108.368 120.078C109.091 119.545 109.814 119.012 110.559 118.463C112.759 116.893 114.992 115.385 117.243 113.89C118.351 113.129 118.351 113.129 119.482 112.353C137.054 100.612 157.715 100.164 177.368 107.078Z" fill="#FC3F04"/>
<path d="M313.181 111.765C314.069 111.77 314.958 111.775 315.873 111.78C322.125 111.892 327.633 112.419 333.368 115.078C334.13 115.418 334.892 115.758 335.677 116.109C343.982 120.254 350.04 126.192 353.775 134.707C354.565 137.863 354.463 140.839 354.368 144.078C337.091 145.463 337.091 145.463 333.052 142.214C331.681 139.828 331.681 139.828 330.509 137.347C328.904 134.154 327.153 133.03 323.911 131.664C315.844 129.805 307.557 129.784 300.368 134.078C297.112 136.991 296.071 139.245 295.806 143.515C296.025 147.286 296.774 149.987 299.548 152.753C306.867 158.078 316.384 159.999 324.931 162.515C347.335 169.157 347.335 169.157 353.368 179.078C357.492 187.266 357.628 196.102 355.747 205.023C352.166 215.177 345.076 221.307 335.591 225.886C322.476 230.735 306.368 231.219 293.2 226.402C283.564 221.896 276.223 215.638 272.493 205.515C271.231 201.678 271.281 198.099 271.368 194.078C274.472 193.933 277.575 193.844 280.681 193.765C281.562 193.723 282.443 193.681 283.351 193.638C285.784 193.592 287.98 193.605 290.368 194.078C292.364 196.406 292.364 196.406 293.368 199.078C296.614 204.757 299.927 207.669 306.228 209.668C313.931 211.144 321.389 210.629 328.368 207.078C332.775 203.335 332.775 203.335 334.607 198.089C334.643 196.939 334.643 196.939 334.681 195.765C334.718 195.006 334.756 194.247 334.794 193.464C334.196 190.113 332.661 188.567 330.368 186.078C321.672 181.158 311.381 178.864 301.816 176.205C291.8 173.273 283.311 168.934 277.368 160.078C273.062 152.183 272.739 141.66 275.247 133.066C279.671 123.532 286.725 117.909 296.368 114.078C302.077 112.084 307.205 111.726 313.181 111.765Z" fill="black"/>
<path d="M769.181 147.703C775.754 152.45 779.937 159.093 781.368 167.078C781.652 171.742 781.625 176.398 781.599 181.07C781.598 182.425 781.597 183.78 781.597 185.136C781.596 187.961 781.588 190.787 781.574 193.613C781.557 197.241 781.553 200.87 781.554 204.498C781.554 207.289 781.548 210.081 781.541 212.872C781.536 214.863 781.535 216.853 781.533 218.843C781.527 220.042 781.52 221.241 781.514 222.476C781.51 223.536 781.506 224.596 781.502 225.689C781.368 228.078 781.368 228.078 780.368 229.078C779.038 229.176 777.702 229.208 776.368 229.21C775.564 229.212 774.76 229.213 773.931 229.214C773.085 229.21 772.24 229.207 771.368 229.203C770.523 229.207 769.677 229.21 768.806 229.214C768.002 229.213 767.197 229.212 766.368 229.21C765.626 229.209 764.883 229.208 764.118 229.207C762.368 229.078 762.368 229.078 761.368 228.078C761.296 226.392 761.285 224.703 761.306 223.015C761.315 222.096 761.324 221.177 761.333 220.23C761.345 219.52 761.356 218.809 761.368 218.078C760.708 218.078 760.048 218.078 759.368 218.078C758.987 218.971 758.987 218.971 758.599 219.882C755.958 224.594 751.027 227.362 746.181 229.453C735.422 231.216 726.353 230.641 717.114 224.605C711.707 220.393 708.887 215.752 707.368 209.078C706.449 201.655 706.751 195.168 711.368 189.078C717.903 181.258 726.462 178.763 736.341 177.617C744.33 176.979 752.359 176.941 760.368 177.078C760.71 171.378 760.822 166.912 757.368 162.078C752.08 158.01 745.737 158.448 739.368 159.078C735.101 160.449 733.833 161.185 731.759 165.171C729.368 168.078 729.368 168.078 727.454 168.565C725.15 168.668 722.92 168.602 720.618 168.453C719.429 168.412 719.429 168.412 718.216 168.371C716.266 168.3 714.317 168.192 712.368 168.078C710.869 162.819 712.274 160.164 714.79 155.511C719.398 148.405 726.291 145.108 734.134 142.488C745.881 140.331 758.878 141.552 769.181 147.703Z" fill="black"/>
<path d="M510.947 148.261C519.713 154.836 525.46 164.215 527.368 175.078C527.463 177.818 527.508 180.526 527.493 183.265C527.497 184.002 527.501 184.739 527.505 185.498C527.495 190.951 527.495 190.951 526.368 192.078C524.588 192.171 522.805 192.195 521.022 192.191C519.881 192.191 518.74 192.191 517.565 192.191C516.323 192.186 515.081 192.181 513.802 192.175C511.906 192.173 511.906 192.173 509.972 192.171C506.607 192.166 503.242 192.157 499.877 192.146C496.445 192.136 493.013 192.132 489.581 192.126C482.844 192.115 476.106 192.099 469.368 192.078C469.813 194.005 470.269 195.931 470.728 197.855C471.106 199.464 471.106 199.464 471.492 201.105C473.096 206.549 475.624 209.051 480.556 211.953C486.879 213.818 492.647 214.183 498.743 211.39C502.093 209.499 504.148 207.238 506.368 204.078C509.529 202.497 512.901 202.852 516.368 202.828C517.106 202.807 517.843 202.786 518.603 202.765C520.743 202.75 520.743 202.75 524.368 203.078C525.028 204.068 525.688 205.058 526.368 206.078C521.096 218.154 514.652 224.091 502.368 229.078C491.57 232.023 478.331 231.059 468.368 226.078C457.954 219.71 452.184 210.826 448.836 199.233C445.845 185.438 447.837 170.154 455.181 158.203C467.993 140.503 492.701 136.504 510.947 148.261Z" fill="black"/>
<path d="M364.368 144.078C367.472 143.932 370.575 143.844 373.681 143.765C374.562 143.723 375.443 143.681 376.351 143.638C377.622 143.614 377.622 143.614 378.919 143.589C379.7 143.563 380.48 143.537 381.284 143.51C383.368 144.078 383.368 144.078 384.943 146.01C386.856 150.127 388.246 154.332 389.618 158.656C390.068 160.045 390.068 160.045 390.526 161.462C391.479 164.415 392.424 167.371 393.368 170.328C394.003 172.3 394.639 174.273 395.275 176.246C396.176 179.04 397.076 181.834 397.971 184.63C398.241 185.474 398.512 186.318 398.79 187.188C399.05 188 399.31 188.813 399.577 189.65C400.617 192.839 401.715 196.007 402.826 199.171C403.368 201.078 403.368 201.078 403.368 204.078C404.028 204.078 404.688 204.078 405.368 204.078C405.624 202.825 405.879 201.573 406.142 200.282C407.394 194.663 409.164 189.259 410.993 183.804C411.515 182.236 411.515 182.236 412.047 180.636C412.777 178.442 413.51 176.248 414.245 174.056C415.371 170.694 416.487 167.329 417.603 163.964C418.316 161.827 419.029 159.691 419.743 157.554C420.077 156.548 420.41 155.542 420.754 154.505C421.067 153.573 421.381 152.642 421.704 151.682C421.978 150.863 422.252 150.044 422.534 149.2C423.368 147.078 423.368 147.078 425.368 144.078C427.34 143.737 427.34 143.737 429.72 143.785C430.996 143.799 430.996 143.799 432.298 143.814C433.188 143.839 434.077 143.864 434.993 143.89C436.339 143.91 436.339 143.91 437.712 143.931C439.932 143.967 442.15 144.016 444.368 144.078C445.629 147.859 444.905 149.094 443.574 152.808C443.156 153.988 442.738 155.168 442.307 156.383C441.838 157.677 441.369 158.971 440.9 160.265C440.421 161.605 439.943 162.945 439.466 164.286C438.201 167.833 436.925 171.375 435.647 174.917C434.375 178.447 433.115 181.981 431.853 185.515C429.043 193.376 426.211 201.229 423.368 209.078C422.983 210.144 422.597 211.211 422.199 212.31C421.207 215.047 420.211 217.781 419.212 220.515C418.931 221.29 418.65 222.065 418.36 222.864C416.486 227.96 416.486 227.96 415.368 229.078C413.734 229.165 412.095 229.185 410.458 229.175C409.469 229.172 408.48 229.169 407.46 229.166C406.419 229.157 405.378 229.149 404.306 229.14C403.261 229.136 402.216 229.131 401.14 229.126C398.549 229.115 395.959 229.097 393.368 229.078C389.77 220.669 386.511 212.179 383.427 203.57C382.973 202.31 382.519 201.051 382.065 199.792C380.882 196.512 379.702 193.231 378.523 189.95C376.635 184.694 374.744 179.439 372.849 174.186C372.196 172.373 371.546 170.559 370.895 168.746C370.491 167.624 370.087 166.502 369.671 165.347C369.288 164.282 368.905 163.218 368.511 162.121C367.133 158.45 365.592 154.861 363.977 151.288C363.23 148.573 363.639 146.765 364.368 144.078Z" fill="black"/>
<path d="M543.226 113.964C544.412 113.972 544.412 113.972 545.622 113.98C546.903 113.985 546.903 113.985 548.21 113.99C549.108 113.998 550.006 114.007 550.931 114.015C551.833 114.02 552.734 114.024 553.663 114.029C555.898 114.041 558.133 114.057 560.368 114.078C560.392 128.924 560.409 143.771 560.42 158.617C560.425 165.51 560.432 172.403 560.444 179.296C560.455 185.942 560.461 192.588 560.463 199.234C560.465 201.776 560.469 204.318 560.474 206.86C560.481 210.406 560.482 213.953 560.482 217.499C560.486 218.562 560.489 219.624 560.493 220.719C560.491 221.679 560.49 222.64 560.489 223.63C560.49 224.469 560.491 225.309 560.491 226.174C560.368 228.078 560.368 228.078 559.368 229.078C558.038 229.176 556.702 229.208 555.368 229.21C554.564 229.212 553.76 229.213 552.931 229.214C552.085 229.21 551.24 229.207 550.368 229.203C549.523 229.207 548.677 229.21 547.806 229.214C547.002 229.213 546.197 229.212 545.368 229.21C544.626 229.209 543.883 229.208 543.118 229.207C541.368 229.078 541.368 229.078 540.368 228.078C540.271 226.612 540.242 225.143 540.241 223.674C540.239 222.723 540.236 221.773 540.233 220.793C540.235 219.742 540.237 218.69 540.239 217.607C540.237 216.506 540.236 215.406 540.234 214.271C540.229 210.613 540.232 206.955 540.236 203.296C540.235 200.767 540.234 198.237 540.233 195.707C540.231 190.398 540.233 185.088 540.238 179.778C540.243 173.632 540.242 167.485 540.236 161.338C540.231 155.435 540.232 149.533 540.235 143.63C540.235 141.113 540.234 138.597 540.232 136.08C540.23 132.569 540.233 129.059 540.239 125.548C540.237 124.497 540.235 123.445 540.233 122.362C540.236 121.411 540.239 120.461 540.241 119.481C540.242 118.65 540.242 117.819 540.243 116.963C540.412 114.419 540.679 114.12 543.226 113.964Z" fill="black"/>
<path d="M760.368 190.078C760.99 201.715 760.99 201.715 758.743 206.64C753.757 211.758 749.165 214.203 742.056 214.39C737.029 214.35 734.206 213.521 730.368 210.078C727.554 205.856 727.444 202.033 728.368 197.078C730.684 193.841 733.613 192.329 737.368 191.078C738.716 190.933 740.069 190.831 741.423 190.761C742.203 190.719 742.983 190.677 743.786 190.634C745.003 190.575 745.003 190.575 746.243 190.515C747.448 190.45 747.448 190.45 748.677 190.384C752.578 190.182 756.461 190.022 760.368 190.078Z" fill="#FCFCFC"/>
<path d="M496.181 159.203C501.324 162.228 504.716 166.22 506.368 172.078C506.368 173.728 506.368 175.378 506.368 177.078C494.158 177.078 481.948 177.078 469.368 177.078C472.16 164.516 472.16 164.516 478.493 159.703C484.239 156.756 490.168 157.428 496.181 159.203Z" fill="#FCFCFC"/>
<path d="M203.368 198.703C204.455 198.685 204.455 198.685 205.564 198.667C210.837 198.697 210.837 198.697 213.076 200.302C214.764 202.621 214.742 204.042 214.732 206.894C214.731 207.823 214.73 208.752 214.73 209.708C214.714 210.676 214.698 211.643 214.681 212.64C214.686 214.097 214.686 214.097 214.691 215.583C214.635 222.811 214.635 222.811 212.368 225.078C209.513 225.303 206.786 225.402 203.931 225.39C202.766 225.414 202.766 225.414 201.577 225.439C195.878 225.444 195.878 225.444 193.647 223.84C192.019 221.596 191.982 220.272 191.97 217.515C191.966 216.636 191.962 215.757 191.958 214.851C191.97 213.936 191.981 213.021 191.993 212.078C191.976 210.705 191.976 210.705 191.958 209.304C191.962 208.425 191.966 207.546 191.97 206.64C191.975 205.436 191.975 205.436 191.98 204.207C193.096 198.088 198.207 198.62 203.368 198.703Z" fill="#FCFCFC"/>
<path d="M198.431 243.812C199.626 243.808 199.626 243.808 200.845 243.804C201.678 243.812 202.51 243.82 203.368 243.828C204.201 243.82 205.034 243.812 205.892 243.804C206.688 243.807 207.485 243.809 208.306 243.812C209.037 243.814 209.768 243.817 210.521 243.819C212.368 244.078 212.368 244.078 214.368 246.078C214.627 248.201 214.627 248.201 214.634 250.796C214.638 252.194 214.638 252.194 214.642 253.621C214.634 254.596 214.626 255.572 214.618 256.578C214.626 257.553 214.634 258.529 214.642 259.535C214.639 260.467 214.637 261.399 214.634 262.359C214.632 263.215 214.63 264.072 214.627 264.955C214.368 267.078 214.368 267.078 212.368 269.078C209.389 269.521 206.377 269.402 203.368 269.39C202.536 269.406 201.703 269.422 200.845 269.439C199.65 269.44 199.65 269.44 198.431 269.441C197.7 269.444 196.969 269.447 196.216 269.45C194.368 269.078 194.368 269.078 192.368 266.078C192.11 263.933 192.11 263.933 192.103 261.48C192.1 260.596 192.098 259.713 192.095 258.802C192.103 257.882 192.11 256.963 192.118 256.015C192.111 255.092 192.103 254.168 192.095 253.216C192.098 252.334 192.1 251.452 192.103 250.542C192.105 249.734 192.107 248.926 192.11 248.093C192.626 244.073 194.912 243.823 198.431 243.812Z" fill="#FCFCFC"/>
<path d="M25.0852 216.755C26.1845 216.76 26.1845 216.76 27.3059 216.765C28.0349 216.749 28.7638 216.733 29.5149 216.716C34.8694 216.711 34.8694 216.711 37.0762 218.331C38.683 220.503 38.7548 221.703 38.7668 224.386C38.7726 225.631 38.7726 225.631 38.7786 226.9C38.767 227.763 38.7554 228.626 38.7434 229.515C38.755 230.374 38.7666 231.233 38.7786 232.119C38.7624 235.599 38.6368 238.4 37.3489 241.652C34.2278 243.899 30.9939 243.577 27.3059 243.453C26.5731 243.451 25.8402 243.45 25.0852 243.449C19.6497 243.359 19.6497 243.359 17.3684 241.078C17.1096 238.863 17.1096 238.863 17.1028 236.14C17.1002 235.163 17.0976 234.186 17.095 233.179C17.1027 232.156 17.1104 231.132 17.1184 230.078C17.1107 229.054 17.1029 228.031 17.095 226.976C17.0975 225.999 17.1001 225.022 17.1028 224.015C17.105 223.117 17.1073 222.218 17.1096 221.292C17.6792 216.418 20.9074 216.798 25.0852 216.755Z" fill="#FCFCFC"/>
<path d="M26.7434 261.89C27.9152 261.872 27.9152 261.872 29.1106 261.853C33.0448 261.843 35.0243 261.848 38.3684 264.078C38.7407 266.001 38.7407 266.001 38.7317 268.324C38.731 269.161 38.7304 269.998 38.7297 270.861C38.7136 271.737 38.6975 272.613 38.6809 273.515C38.6857 274.823 38.6857 274.823 38.6907 276.158C38.6356 282.677 38.6356 282.677 36.3684 286.078C31.141 286.681 27.7957 285.869 23.3684 283.078C18.6316 278.867 18.6316 278.867 17.3684 275.078C17.2744 273.038 17.2385 270.995 17.2434 268.953C17.2408 267.878 17.2383 266.803 17.2356 265.695C17.5157 260.176 22.3516 261.894 26.7434 261.89Z" fill="#FCFCFC"/>
<path d="M231.368 111.078C232.582 114.719 232.036 115.409 230.431 118.765C230.051 119.573 229.67 120.382 229.279 121.214C228.978 121.829 228.678 122.444 228.368 123.078C227.378 123.078 226.388 123.078 225.368 123.078C225.698 122.088 226.028 121.098 226.368 120.078C227.028 120.078 227.688 120.078 228.368 120.078C229.358 117.108 230.348 114.138 231.368 111.078Z" fill="#EE4903"/>
<path d="M30.3684 65.0776C30.3684 68.0776 30.3684 68.0776 29.0559 69.4644C27.4934 70.6688 25.9309 71.8732 24.3684 73.0776C24.7172 69.8222 25.3897 69.0589 27.9309 66.8276C28.7353 66.2501 29.5397 65.6726 30.3684 65.0776Z" fill="#E94403"/>
</svg>
